<svg width="69" height="68" viewBox="0 0 69 68" fill="none" xmlns="http://www.w3.org/2000/svg">
<path d="M35.534 68H35.3291C33.3061 67.6183 31.4648 66.7113 29.5593 65.9904C24.8277 64.2024 20.1165 62.3707 15.3917 60.5608C14.0558 60.0505 12.7226 59.5307 11.3867 59.0191C11.2587 58.9725 11.1417 58.8998 11.0432 58.8056C10.9447 58.7114 10.8668 58.5978 10.8144 58.4719C9.99483 56.7099 9.23536 54.9219 8.43628 53.1503C7.36264 50.7727 6.31086 48.3869 5.25771 46.0011C3.91635 42.9651 2.56269 39.9313 1.19674 36.8998C0.915394 36.2642 0.701585 35.6007 0.558838 34.9203V34.7151C0.939938 32.685 1.8483 30.8437 2.56269 28.9367C4.35208 24.2034 6.19065 19.4783 7.98824 14.7436C8.49774 13.4057 9.01954 12.0719 9.52904 10.7327C9.57589 10.6048 9.64861 10.488 9.74263 10.3896C9.83665 10.2912 9.94994 10.2133 10.0754 10.1608C11.8348 9.34003 13.6269 8.58079 15.3903 7.77914C17.763 6.70252 20.1466 5.65053 22.5288 4.5958C25.5653 3.25105 28.6209 1.94598 31.6137 0.509575C33.1081 -0.208626 34.4167 -0.115602 35.9042 0.464431C42.9006 3.20044 49.9125 5.89312 56.9398 8.54249C57.8769 8.89543 58.3741 9.45084 58.7538 10.34C60.0364 13.3332 61.3969 16.2922 62.7151 19.269C64.0332 22.2458 65.3705 25.2513 66.7023 28.2417C67.1804 29.3156 67.6284 30.4045 68.1461 31.4606C68.3893 31.9208 68.5288 32.4288 68.5545 32.9489C68.5802 33.4689 68.4916 33.9883 68.295 34.4702C67.0975 37.5665 65.9037 40.6691 64.7135 43.7781C63.0306 48.174 61.3487 52.5689 59.6676 56.9629C59.6094 57.1478 59.5124 57.318 59.383 57.4622C59.2537 57.6063 59.095 57.7211 58.9177 57.7988C56.4945 58.8932 54.0645 59.9616 51.6413 61.0519C49.3328 62.0971 47.0107 63.1149 44.6941 64.1491C42.0815 65.3146 39.4698 66.4829 36.859 67.6539C36.4383 67.8427 35.9725 67.8714 35.534 68Z" fill="#25283D"/>
<path d="M31.2038 30.8198C31.8231 30.2508 32.366 29.6254 33.0319 29.1171C35.1781 27.4722 37.6056 26.7463 40.3032 27.2105C43.2821 27.723 44.8726 29.6902 45.5442 32.426C46.2752 35.4016 45.7888 38.3042 44.6959 41.1048C43.1789 44.9896 40.6071 47.9927 36.5947 49.6155C33.5819 50.8346 30.4488 51.0991 27.2889 50.183C24.6564 49.4199 23.2694 47.5491 23.227 44.8656C23.1945 42.7028 23.6808 40.6075 24.1163 38.5053C25.369 32.4577 26.6216 26.4097 27.8742 20.3612C28.0623 19.4534 28.2489 18.5455 28.4271 17.6363C28.4765 17.3829 28.5826 17.2671 28.8766 17.2699C30.4644 17.285 32.0521 17.2906 33.6384 17.2699C34.0498 17.2699 34.0541 17.4256 33.9876 17.7314C33.0884 21.9082 32.193 26.0869 31.3014 30.2674C31.2618 30.4492 31.2363 30.6324 31.2038 30.8198Z" fill="white"/>
<path d="M40.4953 35.6766C40.2334 39.003 39.095 41.966 36.2204 44.1384C34.9339 45.1107 33.4308 45.5457 31.7589 45.2335C30.5246 45.0058 29.7099 44.265 29.7017 43.1034C29.7017 39.7552 30.3257 36.5351 32.457 33.7307C33.2936 32.6291 34.3977 31.7937 35.835 31.4432C38.1062 30.8892 39.8946 31.9933 40.3417 34.1912C40.4324 34.6821 40.4838 35.1786 40.4953 35.6766Z" fill="#25283D"/>
</svg>
